<mxfile host="app.diagrams.net" modified="2023-10-01T03:27:19.040Z" agent="Mozilla/5.0 (Windows NT 10.0; Win64; x64) AppleWebKit/537.36 (KHTML, like Gecko) Chrome/117.0.0.0 Safari/537.36" etag="wpSyXfadFH87mpU5NDWS" version="22.0.0" type="github">
  <diagram name="第 1 页" id="k7NZtq-8j6TSqVx4ws3o">
    <mxGraphModel dx="1450" dy="581" grid="0" gridSize="10" guides="1" tooltips="1" connect="1" arrows="1" fold="1" page="0" pageScale="1" pageWidth="827" pageHeight="1169" math="0" shadow="0">
      <root>
        <mxCell id="0" />
        <mxCell id="1" parent="0" />
        <mxCell id="iKhuEoK9hFqBIW65tR1s-3" style="edgeStyle=orthogonalEdgeStyle;rounded=0;orthogonalLoop=1;jettySize=auto;html=1;" edge="1" parent="1" source="iKhuEoK9hFqBIW65tR1s-1" target="iKhuEoK9hFqBIW65tR1s-2">
          <mxGeometry relative="1" as="geometry" />
        </mxCell>
        <mxCell id="iKhuEoK9hFqBIW65tR1s-4" value="1. /hello.jsp" style="edgeLabel;html=1;align=center;verticalAlign=middle;resizable=0;points=[];" vertex="1" connectable="0" parent="iKhuEoK9hFqBIW65tR1s-3">
          <mxGeometry x="-0.1087" y="-2" relative="1" as="geometry">
            <mxPoint as="offset" />
          </mxGeometry>
        </mxCell>
        <mxCell id="iKhuEoK9hFqBIW65tR1s-1" value="客户端" style="shape=umlActor;verticalLabelPosition=bottom;verticalAlign=top;html=1;outlineConnect=0;" vertex="1" parent="1">
          <mxGeometry x="-20" y="154" width="30" height="60" as="geometry" />
        </mxCell>
        <mxCell id="iKhuEoK9hFqBIW65tR1s-6" style="rounded=0;orthogonalLoop=1;jettySize=auto;html=1;entryX=0;entryY=0.25;entryDx=0;entryDy=0;" edge="1" parent="1" source="iKhuEoK9hFqBIW65tR1s-2" target="iKhuEoK9hFqBIW65tR1s-5">
          <mxGeometry relative="1" as="geometry" />
        </mxCell>
        <mxCell id="iKhuEoK9hFqBIW65tR1s-7" value="2. web 服务器将请求交付给 JSP Engine" style="edgeLabel;html=1;align=center;verticalAlign=middle;resizable=0;points=[];" vertex="1" connectable="0" parent="iKhuEoK9hFqBIW65tR1s-6">
          <mxGeometry x="-0.047" y="-2" relative="1" as="geometry">
            <mxPoint as="offset" />
          </mxGeometry>
        </mxCell>
        <mxCell id="iKhuEoK9hFqBIW65tR1s-2" value="" style="outlineConnect=0;dashed=0;verticalLabelPosition=bottom;verticalAlign=top;align=center;html=1;shape=mxgraph.aws3.traditional_server;fillColor=#7D7C7C;gradientColor=none;" vertex="1" parent="1">
          <mxGeometry x="216" y="131.5" width="63" height="105" as="geometry" />
        </mxCell>
        <mxCell id="iKhuEoK9hFqBIW65tR1s-9" style="rounded=0;orthogonalLoop=1;jettySize=auto;html=1;" edge="1" parent="1" source="iKhuEoK9hFqBIW65tR1s-5" target="iKhuEoK9hFqBIW65tR1s-8">
          <mxGeometry relative="1" as="geometry" />
        </mxCell>
        <mxCell id="iKhuEoK9hFqBIW65tR1s-10" value="3. 从内存中读取 hello.jsp 文件" style="edgeLabel;html=1;align=center;verticalAlign=middle;resizable=0;points=[];" vertex="1" connectable="0" parent="iKhuEoK9hFqBIW65tR1s-9">
          <mxGeometry x="0.1154" y="-1" relative="1" as="geometry">
            <mxPoint as="offset" />
          </mxGeometry>
        </mxCell>
        <mxCell id="iKhuEoK9hFqBIW65tR1s-21" style="edgeStyle=orthogonalEdgeStyle;rounded=0;orthogonalLoop=1;jettySize=auto;html=1;" edge="1" parent="1" source="iKhuEoK9hFqBIW65tR1s-5" target="iKhuEoK9hFqBIW65tR1s-2">
          <mxGeometry relative="1" as="geometry">
            <Array as="points">
              <mxPoint x="581" y="220" />
            </Array>
          </mxGeometry>
        </mxCell>
        <mxCell id="iKhuEoK9hFqBIW65tR1s-22" value="5. 交付给 Servlet 引擎" style="edgeLabel;html=1;align=center;verticalAlign=middle;resizable=0;points=[];" vertex="1" connectable="0" parent="iKhuEoK9hFqBIW65tR1s-21">
          <mxGeometry x="-0.0561" y="-1" relative="1" as="geometry">
            <mxPoint as="offset" />
          </mxGeometry>
        </mxCell>
        <mxCell id="iKhuEoK9hFqBIW65tR1s-5" value="JSP&amp;nbsp;engine" style="swimlane;whiteSpace=wrap;html=1;" vertex="1" parent="1">
          <mxGeometry x="528" y="82" width="117" height="98" as="geometry" />
        </mxCell>
        <mxCell id="iKhuEoK9hFqBIW65tR1s-16" value="hello_jsp.class" style="rounded=0;whiteSpace=wrap;html=1;" vertex="1" parent="iKhuEoK9hFqBIW65tR1s-5">
          <mxGeometry y="34" width="117" height="30" as="geometry" />
        </mxCell>
        <mxCell id="iKhuEoK9hFqBIW65tR1s-18" style="edgeStyle=elbowEdgeStyle;rounded=0;orthogonalLoop=1;jettySize=auto;html=1;entryX=1;entryY=0.5;entryDx=0;entryDy=0;elbow=vertical;" edge="1" parent="1" source="iKhuEoK9hFqBIW65tR1s-8" target="iKhuEoK9hFqBIW65tR1s-5">
          <mxGeometry relative="1" as="geometry">
            <Array as="points">
              <mxPoint x="1011" y="175" />
            </Array>
          </mxGeometry>
        </mxCell>
        <mxCell id="iKhuEoK9hFqBIW65tR1s-19" value="4. 将 jsp 页面编译为 class 文件" style="edgeLabel;html=1;align=center;verticalAlign=middle;resizable=0;points=[];" vertex="1" connectable="0" parent="iKhuEoK9hFqBIW65tR1s-18">
          <mxGeometry x="0.0821" relative="1" as="geometry">
            <mxPoint as="offset" />
          </mxGeometry>
        </mxCell>
        <mxCell id="iKhuEoK9hFqBIW65tR1s-8" value="" style="pointerEvents=1;shadow=0;dashed=0;html=1;strokeColor=none;fillColor=#4495D1;labelPosition=center;verticalLabelPosition=bottom;verticalAlign=top;align=center;outlineConnect=0;shape=mxgraph.veeam.ram;" vertex="1" parent="1">
          <mxGeometry x="822" y="72" width="112" height="34" as="geometry" />
        </mxCell>
      </root>
    </mxGraphModel>
  </diagram>
</mxfile>
